<svg width="33" height="33" viewBox="0 0 33 33" fill="none" xmlns="http://www.w3.org/2000/svg">
<g id="Icon">
<path id="Vector" d="M29.8334 23.06V27.06C29.8349 27.4313 29.7589 27.7989 29.6101 28.1391C29.4613 28.4793 29.2431 28.7848 28.9695 29.0358C28.6959 29.2868 28.3728 29.4779 28.0211 29.5969C27.6693 29.7159 27.2966 29.7601 26.9267 29.7266C22.8239 29.2808 18.8827 27.8788 15.4201 25.6333C12.1985 23.5862 9.46719 20.8549 7.42007 17.6333C5.16671 14.1549 3.7644 10.1946 3.32674 6.0733C3.29342 5.70459 3.33724 5.33298 3.45541 4.98213C3.57357 4.63128 3.7635 4.30889 4.01309 4.03546C4.26269 3.76204 4.56648 3.54358 4.90513 3.394C5.24378 3.24441 5.60986 3.16698 5.98007 3.16663H9.98007C10.6271 3.16026 11.2545 3.3894 11.7451 3.81134C12.2357 4.23328 12.5562 4.81923 12.6467 5.45997C12.8156 6.74006 13.1287 7.99694 13.5801 9.20663C13.7595 9.68387 13.7983 10.2025 13.6919 10.7011C13.5856 11.1998 13.3386 11.6574 12.9801 12.02L11.2867 13.7133C13.1848 17.0514 15.9487 19.8152 19.2867 21.7133L20.9801 20.02C21.3426 19.6615 21.8003 19.4144 22.2989 19.3081C22.7975 19.2018 23.3162 19.2406 23.7934 19.42C25.0031 19.8714 26.26 20.1845 27.5401 20.3533C28.1878 20.4447 28.7793 20.7709 29.2021 21.27C29.625 21.769 29.8496 22.4061 29.8334 23.06Z" stroke="#4B5563" stroke-width="2" stroke-linecap="round" stroke-linejoin="round"/>
</g>
</svg>
